@startuml
set namespaceSeparator ?
hide circle
hide class fields

package IG #DDDDDD{

     package Profiles #DDDDDD{

        class CDSBundleResponseRecherche{

             Bundle.type => [None..None]
             Bundle.entry => [None..None]
             Bundle.entry:careTeam => [0..*]
             Bundle.entry:careTeam.resource => [1..None]
             Bundle.entry:careTeam.search.mode => [None..None]
             Bundle.entry:careTeam.request => [None..0]
             Bundle.entry:careTeam.response => [None..0]
             Bundle.entry:patient => [0..*]
             Bundle.entry:patient.resource => [1..None]
             Bundle.entry:patient.search.mode => [None..None]
             Bundle.entry:patient.request => [None..0]
             Bundle.entry:patient.response => [None..0]
             Bundle.entry:relatedPerson => [0..*]
             Bundle.entry:relatedPerson.resource => [1..None]
             Bundle.entry:relatedPerson.search.mode => [None..None]
             Bundle.entry:relatedPerson.request => [None..0]
             Bundle.entry:relatedPerson.response => [None..0]
             Bundle.entry:organization => [0..*]
             Bundle.entry:organization.resource => [1..None]
             Bundle.entry:organization.search.mode => [None..None]
             Bundle.entry:organization.request => [None..0]
             Bundle.entry:organization.response => [None..0]
             Bundle.entry:organizationInterne => [0..*]
             Bundle.entry:organizationInterne.resource => [1..None]
             Bundle.entry:organizationInterne.search.mode => [None..None]
             Bundle.entry:organizationInterne.request => [None..0]
             Bundle.entry:organizationInterne.response => [None..0]
             Bundle.entry:practitionerRoleOrg => [0..*]
             Bundle.entry:practitionerRoleOrg.resource => [1..None]
             Bundle.entry:practitionerRoleOrg.search.mode => [None..None]
             Bundle.entry:practitionerRoleOrg.request => [None..0]
             Bundle.entry:practitionerRoleOrg.response => [None..0]
             Bundle.entry:practitionerPro => [0..*]
             Bundle.entry:practitionerPro.resource => [1..None]
             Bundle.entry:practitionerPro.search.mode => [None..None]
             Bundle.entry:practitionerPro.request => [None..0]
             Bundle.entry:practitionerPro.response => [None..0]
        } 

        class CDSBundleTransactionCreation{

             Bundle.type => [None..None]
             Bundle.entry => [2..None]
             Bundle.entry:careTeam => [1..1]
             Bundle.entry:careTeam.resource => [1..None]
             Bundle.entry:careTeam.request.method => [None..None]
             Bundle.entry:careTeam.response => [None..0]
             Bundle.entry:patient => [1..1]
             Bundle.entry:patient.resource => [1..None]
             Bundle.entry:patient.request.method => [None..None]
             Bundle.entry:patient.response => [None..0]
             Bundle.entry:relatedPerson => [0..*]
             Bundle.entry:relatedPerson.resource => [1..None]
             Bundle.entry:relatedPerson.request.method => [None..None]
             Bundle.entry:relatedPerson.response => [None..0]
             Bundle.entry:organization => [0..*]
             Bundle.entry:organization.resource => [1..None]
             Bundle.entry:organization.request.method => [None..None]
             Bundle.entry:organization.response => [None..0]
             Bundle.entry:organizationInterne => [0..*]
             Bundle.entry:organizationInterne.resource => [1..None]
             Bundle.entry:organizationInterne.request.method => [None..None]
             Bundle.entry:organizationInterne.response => [None..0]
             Bundle.entry:practitionerRoleOrg => [0..*]
             Bundle.entry:practitionerRoleOrg.resource => [1..None]
             Bundle.entry:practitionerRoleOrg.request.method => [None..None]
             Bundle.entry:practitionerRoleOrg.response => [None..0]
             Bundle.entry:practitionerPro => [0..*]
             Bundle.entry:practitionerPro.resource => [1..None]
             Bundle.entry:practitionerPro.request.method => [None..None]
             Bundle.entry:practitionerPro.response => [None..0]
        } 

        class CDSBundleTransactionMAJ{

             Bundle.type => [None..None]
             Bundle.entry => [1..None]
             Bundle.entry:careTeam => [0..*]
             Bundle.entry:careTeam.resource => [1..None]
             Bundle.entry:careTeam.request.method => [None..None]
             Bundle.entry:careTeam.response => [None..0]
             Bundle.entry:patient => [0..*]
             Bundle.entry:patient.resource => [1..None]
             Bundle.entry:patient.request.method => [None..None]
             Bundle.entry:patient.response => [None..0]
             Bundle.entry:relatedPerson => [0..*]
             Bundle.entry:relatedPerson.resource => [1..None]
             Bundle.entry:relatedPerson.request.method => [None..None]
             Bundle.entry:relatedPerson.response => [None..0]
             Bundle.entry:organization => [0..*]
             Bundle.entry:organization.resource => [1..None]
             Bundle.entry:organization.request.method => [None..None]
             Bundle.entry:organization.response => [None..0]
             Bundle.entry:organizationInterne => [0..*]
             Bundle.entry:organizationInterne.resource => [1..None]
             Bundle.entry:organizationInterne.request.method => [None..None]
             Bundle.entry:organizationInterne.response => [None..0]
             Bundle.entry:practitionerRoleOrg => [0..*]
             Bundle.entry:practitionerRoleOrg.resource => [1..None]
             Bundle.entry:practitionerRoleOrg.request.method => [None..None]
             Bundle.entry:practitionerRoleOrg.response => [None..0]
             Bundle.entry:practitionerPro => [0..*]
             Bundle.entry:practitionerPro.resource => [1..None]
             Bundle.entry:practitionerPro.request.method => [None..None]
             Bundle.entry:practitionerPro.response => [None..0]
        } 

        class CDSFrRelatedPerson{

             RelatedPerson.meta => [1..None]
             RelatedPerson.relationship:RolePerson => [1..None]
             RelatedPerson.relationship:RelatedPerson => [None..1]
             RelatedPerson.name => [1..1]
             RelatedPerson.name.family => [1..None]
             RelatedPerson.name.given => [None..1]
             RelatedPerson.telecom => [1..None]
        } 

        class CDSCareTeam{

             CareTeam.meta => [1..None]
             CareTeam.identifier => [1..1]
             CareTeam.identifier.value => [1..None]
             CareTeam.status => [1..None]
             CareTeam.subject => [1..None]
             CareTeam.encounter => [None..None]
             CareTeam.period => [1..None]
             CareTeam.period.start => [1..None]
             CareTeam.participant => [None..None]
             CareTeam.participant.member => [1..None]
             CareTeam.participant.period => [None..None]
             CareTeam.participant.period.start => [1..None]
        } 

        class CDSOrganizationOrgaInt{

             Organization.id => [1..None]
             Organization.meta => [1..None]
             Organization.identifier => [None..1]
             Organization.identifier:sirene => [None..1]
             Organization.identifier:finess => [None..1]
             Organization.identifier:adeliRang => [None..1]
             Organization.identifier:rppsRang => [None..1]
             Organization.telecom => [1..None]
             Organization.partOf => [1..None]
         }

     }
     package extension #paleturquoise {


         }
     }
     package valueset #PaleVioletRed{
       }

package "Ressources de base" #palegreen {

 class "Bundle" as  class94c51f19c37f96ed231f5a0ae512b2a8 

    class94c51f19c37f96ed231f5a0ae512b2a8 --> CDSBundleResponseRecherche

 class "Bundle" as  class94c51f19c37f96ed231f5a0ae512b2a8 

    class94c51f19c37f96ed231f5a0ae512b2a8 --> CDSBundleTransactionCreation

 class "Bundle" as  class94c51f19c37f96ed231f5a0ae512b2a8 

    class94c51f19c37f96ed231f5a0ae512b2a8 --> CDSBundleTransactionMAJ

 class "http://interopsante.org/fhir/StructureDefinition/FrRelatedPerson" as  classb45d3f0c18219724abc29fdd5bf6d42f 

    classb45d3f0c18219724abc29fdd5bf6d42f --> CDSFrRelatedPerson

 class "CareTeam" as  class99bade88e2b9cdcc23b2ec3bcc841176 

    class99bade88e2b9cdcc23b2ec3bcc841176 --> CDSCareTeam

 class "https://interop.esante.gouv.fr/ig/fhir/annuaire/StructureDefinition/as-organization" as  class02104d9d29574b85b8bdd491de969f0d 

    class02104d9d29574b85b8bdd491de969f0d --> CDSOrganizationOrgaInt
}
@enduml